<svg width="135" height="148" viewBox="0 0 135 148" fill="none" xmlns="http://www.w3.org/2000/svg">
<path d="M133.049 120.596C132.424 120.948 131.897 120.463 131.387 120.089C127.906 117.569 122.468 111.28 121.623 107.137C121.432 106.206 121.548 104.863 121.31 103.948C121.061 102.978 119.926 101.283 119.492 100.163C117.72 95.6187 116.521 90.7124 115.496 85.9622L114.332 78.9873C113.4 83.8993 111.853 89.2293 112.201 94.2639C112.832 103.29 118.583 109.864 116.353 119.387C115.623 122.492 114.442 125.709 113.62 128.854C112.624 132.667 111.766 136.514 110.932 140.367C107.996 142.48 102.367 144.978 98.8463 143.21C93.3852 140.473 97.3058 133.632 102.211 133.208L107.249 115.339C107.429 112.429 104.116 105.443 102.188 103.14C101.348 102.142 99.8597 101.317 99.1011 100.107C99.0316 102.956 99.7439 105.877 99.3675 108.771C99.0316 111.358 97.1495 115.055 96.3329 117.747C94.4508 123.942 93.3389 130.326 92.1922 136.676C90.617 137.702 88.9955 138.722 87.1597 139.263C84.183 140.144 78.6467 140.718 77.2278 137.367C75.5021 133.297 81.189 130.002 84.9359 130.666C85.1212 127.828 85.5729 124.99 85.7872 122.152C86.0768 118.35 86.459 114.268 85.7293 110.522C84.0846 102.014 78.6061 94.6988 77.3031 86.2353C76.4518 80.6934 77.1989 75.67 78.971 70.3789C74.7434 69.8772 70.5506 70.6243 66.6184 72.124C60.5608 74.4434 56.924 77.2701 50.0441 78.3127C48.2256 78.5859 46.3203 78.6695 44.5656 78.9873C44.2413 80.2585 43.888 81.5241 43.6448 82.8176C40.3786 100.213 38.925 118.272 35.7572 135.723C35.3403 137.992 36.151 140.947 35.9425 143.082C35.3461 149.232 21.7542 148.992 21.2156 142.391C16.2931 143.021 11.9671 138.443 15.3144 134.094C16.5653 132.472 17.4803 132.756 18.5111 130.404C23.4799 119.097 17.4861 96.0146 13.1543 84.6296C10.5019 77.6771 7.20673 72.5255 3.8826 66.0803C-0.83142 56.9423 -0.275468 51.9969 4.59491 43.1766C5.00608 42.4295 6.36701 40.69 6.54654 40.1325C6.66815 39.7533 6.47704 39.8537 6.23381 39.8258C4.61228 39.6307 3.11237 39.8537 1.86148 38.4375C-0.0496114 36.2854 4.10266 35.6498 5.69523 35.7223C5.2609 34.3508 5.15665 33.1298 5.75315 31.7749C6.82451 29.3329 8.2086 31.2341 8.9325 32.7116C9.03095 32.9123 9.28576 34.5403 9.74327 34.0832C10.4266 31.6411 11.5501 29.0207 12.0366 26.5452C12.135 26.0602 12.3435 24.8169 12.2624 24.3931C12.1061 23.5624 10.2645 20.9029 9.79539 19.576C6.25698 9.55145 13.3975 5.21937 22.9819 7.31571C31.8134 -0.233362 43.7664 -1.31499 53.0844 6.19506C56.09 8.61478 58.0996 12.1998 61.4758 14.3184C64.1629 16.0022 66.5605 16.1583 69.3171 17.2288C71.7204 18.1598 74.8245 21.6891 72.6991 24.0419C71.0718 25.8427 70.5101 27.6882 68.7496 29.2604C68.35 29.6173 67.5739 29.9685 67.267 30.2919C67.0933 30.4815 66.9137 30.4759 67.2496 30.6933C67.3828 30.777 69.2128 31.5073 69.5024 31.6021C74.1817 33.1242 79.6196 33.9939 84.461 35.4547C98.273 39.6195 113.782 46.0201 118.438 60.3711C122.208 71.9847 121.328 85.0422 124.623 97.0739C125.7 101.01 128.045 103.056 129.464 106.77C130.64 109.853 132.476 115.59 132.985 118.757C133.084 119.37 133.147 119.972 133.061 120.591L133.049 120.596Z" fill="#FFF8F5"/>
<path d="M130.36 106.152C129.706 104.429 128.86 103.063 128.044 101.736C127.048 100.125 126.109 98.6026 125.542 96.523C124.007 90.9086 123.376 84.9597 122.762 79.2003C122.073 72.7105 121.361 65.9978 119.345 59.7868C117.174 53.0908 112.633 47.638 105.47 43.1052C98.7577 38.8568 90.9222 36.2085 84.853 34.3797C82.5597 33.6884 80.1101 33.1197 77.7415 32.5733C75.1007 31.96 72.3615 31.33 69.9118 30.5327C69.7728 30.4881 69.1474 30.2428 68.6204 30.0309C68.9099 29.8525 69.2053 29.6685 69.4427 29.4567C70.5025 28.5089 71.1627 27.4718 71.7997 26.4683C72.2804 25.71 72.7784 24.9295 73.456 24.1768C74.2726 23.2736 74.5448 22.1473 74.2378 20.9208C73.7108 18.8188 71.5565 16.8507 69.7786 16.1594C68.7536 15.7635 67.7864 15.4903 66.8483 15.2227C65.2325 14.7655 63.7037 14.3362 62.0763 13.3159C60.2521 12.173 58.8565 10.5896 57.3797 8.91138C56.262 7.64576 55.1096 6.33555 53.7602 5.24835C44.6797 -2.06656 32.3387 -1.69859 22.9338 6.12368C17.4843 5.01975 12.9208 5.93412 10.3669 8.66606C8.72803 10.4167 7.19916 13.7118 9.22607 19.4489C9.48089 20.1625 10.0484 21.1494 10.5986 22.1083C11.0213 22.8443 11.6062 23.859 11.6642 24.1601C11.6931 24.3496 11.612 25.1469 11.4383 26.0334C11.1545 27.483 10.6275 29.033 10.1179 30.5272C9.97893 30.9397 9.83415 31.3579 9.69516 31.776C8.88439 30.2317 7.99255 29.4511 7.08334 29.4734C6.30732 29.4901 5.67608 30.0421 5.207 31.107C4.71475 32.2332 4.60472 33.3204 4.87111 34.6139C3.51018 34.7198 1.54118 35.1269 0.938902 36.3088C0.689881 36.7939 0.579849 37.5745 1.44273 38.5501C2.65888 39.9273 4.12405 40.0276 5.40969 40.1168C5.47918 40.1168 5.55447 40.128 5.62396 40.1336C5.41548 40.4458 5.16646 40.8137 4.97535 41.0814C4.61051 41.6055 4.26883 42.0961 4.07772 42.4418C-1.15171 51.9199 -1.30807 56.9935 3.35961 66.0368C4.34411 67.9436 5.32861 69.7389 6.27837 71.4839C8.57746 75.6822 10.7434 79.6519 12.5965 84.5136C17.3106 96.8799 22.6269 119.126 17.9707 129.73C17.4206 130.984 16.9457 131.352 16.3434 131.826C15.9091 132.166 15.411 132.551 14.8609 133.265C13.2915 135.305 13.0888 137.614 14.3049 139.598C15.5674 141.661 18.075 142.899 20.7216 142.821C21.486 146.267 25.4472 147.872 29.0261 147.9C29.0551 147.9 29.084 147.9 29.113 147.9C32.6398 147.9 36.5604 146.306 36.9021 142.771C37.0006 141.745 36.8905 140.613 36.7689 139.414C36.6357 138.049 36.4909 136.632 36.7052 135.473C38.2457 126.987 39.3981 118.222 40.5158 109.748C41.6972 100.783 42.9191 91.5052 44.5928 82.5734C44.7839 81.5475 45.0561 80.5105 45.3167 79.5069L45.3804 79.2672C46.1622 79.1445 46.973 79.0665 47.8243 78.9773C48.6524 78.8936 49.5095 78.8044 50.3434 78.6818C55.0516 77.9681 58.2715 76.4405 61.6883 74.8236C63.3678 74.0319 65.0993 73.2067 67.0915 72.4485C70.8789 70.9989 74.5795 70.4023 78.1121 70.6588C76.369 76.1952 75.9346 80.9565 76.7049 85.9688C77.394 90.4514 79.2414 94.6497 81.0309 98.7086C82.6698 102.422 84.3608 106.263 85.1368 110.283C85.797 113.695 85.5132 117.408 85.2353 120.999L85.1774 121.724C85.0789 123.051 84.9225 124.411 84.772 125.721C84.633 126.942 84.4882 128.202 84.384 129.457C81.9169 129.351 79.0966 130.527 77.5214 132.395C76.2705 133.878 75.9694 135.612 76.6759 137.285C78.3264 141.182 84.2971 140.585 87.5633 139.621C89.4454 139.063 91.0496 138.076 92.8043 136.933L93.0823 136.755L93.3024 135.534C94.3737 129.596 95.4799 123.452 97.2577 117.592C97.5531 116.611 97.999 115.49 98.4739 114.297C99.2731 112.285 100.095 110.205 100.321 108.499C100.553 106.732 100.397 104.97 100.246 103.269C100.2 102.762 100.159 102.266 100.124 101.775C100.269 101.898 100.414 102.02 100.559 102.137C101.016 102.522 101.451 102.879 101.757 103.247C103.57 105.405 106.755 112.145 106.651 114.849L101.775 132.161C98.8909 132.663 96.2906 135.094 95.7115 137.909C95.225 140.284 96.3022 142.325 98.6708 143.512C102.811 145.586 108.933 142.514 111.591 140.602L111.828 140.429L111.886 140.15C112.68 136.493 113.548 132.573 114.568 128.671C114.932 127.277 115.373 125.838 115.807 124.45C116.345 122.716 116.896 120.926 117.307 119.181C118.697 113.249 117.069 108.36 115.5 103.626C114.475 100.537 113.415 97.3482 113.172 93.8413C112.923 90.2842 113.658 86.5375 114.434 82.88L114.915 85.7458C115.865 90.1448 117.087 95.2853 118.946 100.058C119.154 100.593 119.496 101.223 119.832 101.836C120.22 102.556 120.625 103.303 120.741 103.754C120.845 104.167 120.868 104.741 120.897 105.299C120.92 105.845 120.944 106.414 121.048 106.91C121.946 111.298 127.609 117.782 131.113 120.319L131.264 120.43C131.773 120.809 132.624 121.445 133.644 120.871L133.974 120.687L134.026 120.324C134.136 119.594 134.055 118.903 133.951 118.267C133.418 114.961 131.513 109.073 130.389 106.135L130.36 106.152ZM132.196 119.243L132.028 119.114C128.796 116.778 123.376 110.606 122.559 106.626C122.484 106.246 122.461 105.761 122.438 105.243C122.409 104.613 122.38 103.961 122.241 103.403C122.079 102.773 121.65 101.981 121.198 101.145C120.886 100.571 120.567 99.9798 120.393 99.5337C118.575 94.8615 117.37 89.788 116.438 85.4782L115.031 77.0538C114.84 78.2692 114.498 79.4679 114.237 80.6722C113.867 80.7224 114.035 80.2039 114.029 79.9585C113.988 78.9884 113.977 78.0741 113.971 77.1932L113.728 78.4866C113.519 79.5794 113.288 80.6666 113.044 81.8207C112.193 85.8127 111.307 89.9385 111.591 93.9472C111.846 97.6381 112.94 100.916 113.988 104.089C115.564 108.839 117.052 113.322 115.761 118.852C115.367 120.542 114.817 122.309 114.29 124.021C113.855 125.426 113.404 126.881 113.033 128.303C112.037 132.127 111.18 135.969 110.398 139.559C108.771 140.686 106.269 141.94 103.86 142.447C103.923 142.665 104.033 142.888 104.236 143.117C104.062 143.351 103.634 142.966 103.286 142.559C102.534 142.682 101.798 142.715 101.109 142.648C101.132 142.899 101.149 143.156 101.144 143.429C100.825 143.144 100.559 142.843 100.339 142.52C100.003 142.436 99.6785 142.336 99.3773 142.185C98.9719 141.979 98.6187 141.745 98.3233 141.483C98.2944 141.745 98.2712 141.99 98.2654 142.202L97.6284 140.669C97.1882 139.961 97.0435 139.13 97.2346 138.216C97.7152 135.88 100.055 133.811 102.452 133.605L102.997 133.56L108.174 115.178L108.197 115.028C108.406 111.722 104.856 104.568 102.962 102.31C102.568 101.836 102.059 101.418 101.566 101.006C101.561 101 101.549 100.989 101.543 100.983C101.752 101.379 101.943 101.786 102.099 102.21C101.92 102.411 99.4989 99.8014 99.2673 99.4947C99.0241 99.1769 98.7692 98.8312 98.5144 98.4688L98.4855 99.7344C98.4565 100.961 98.5666 102.204 98.6708 103.409C98.8156 105.031 98.9661 106.715 98.7577 108.321C98.5608 109.843 97.7674 111.839 97.0029 113.768C96.5223 114.983 96.0648 116.132 95.752 117.174C93.951 123.118 92.8333 129.301 91.7561 135.283L91.6519 135.869C90.1114 136.861 88.6868 137.714 87.1058 138.182C85.3858 138.69 83.0462 139.013 81.1525 138.69C81.3088 139.125 81.5405 139.587 81.1351 139.532C80.7355 139.225 80.446 138.857 80.2549 138.467C79.6584 138.272 79.1314 137.993 78.7318 137.597C78.7955 137.931 78.9634 138.216 78.7897 138.506C77.8226 137.664 77.6141 136.621 77.8805 135.634C77.8399 134.681 78.2859 133.895 78.7434 133.36C80.1274 131.72 82.9188 130.683 84.9747 131.051L85.8433 131.208L85.9012 130.36C85.9997 128.883 86.1734 127.366 86.3414 125.905C86.4919 124.578 86.6483 123.207 86.7525 121.852L86.8105 121.127C87.0942 117.442 87.3838 113.634 86.6889 110.027C85.8781 105.845 84.1523 101.926 82.4845 98.1343C80.7355 94.1646 78.9229 90.0556 78.2685 85.7625C77.533 80.9621 77.9557 76.3847 79.6526 71.0379C79.473 71.0379 79.2993 71.0268 79.1198 71.0379L79.5367 69.9061C79.6989 69.895 79.8611 69.9061 80.0232 69.895L80.1969 69.3765L79.253 69.265C75.176 68.7855 70.8905 69.3876 66.5182 71.0547C64.4739 71.8352 62.7076 72.6715 61.005 73.4799C57.704 75.0466 54.5826 76.5241 50.1118 77.1987C49.3126 77.3214 48.4787 77.405 47.6737 77.4886C47.3088 77.5277 46.9382 77.5667 46.5676 77.6057C46.5444 77.7618 46.5155 77.9179 46.4923 78.0685C46.278 78.6149 45.5541 78.3863 45.0445 78.4142C45.0677 78.2079 45.0966 78.0016 45.1198 77.7953C44.9518 77.8232 44.7781 77.8399 44.6159 77.8678L44.1179 77.957L43.811 79.1445C43.5446 80.1704 43.2666 81.2353 43.0639 82.3114C41.3787 91.2822 40.1567 100.576 38.9753 109.564C37.8634 118.022 36.711 126.764 35.1763 135.216C34.9273 136.571 35.0779 138.093 35.2227 139.559C35.3327 140.686 35.4369 141.751 35.3559 142.631C35.2342 143.897 34.4177 144.811 33.2884 145.425C33.5896 145.893 33.8791 146.4 33.4274 146.495C32.8714 146.607 32.3966 146.367 32.0433 145.949C31.4179 146.144 30.7519 146.278 30.0801 146.339C30.1843 146.651 30.1785 146.93 29.9179 147.109C29.5241 147.376 29.0609 146.964 28.6671 146.373C27.9084 146.339 27.1382 146.228 26.4085 146.027C26.449 146.3 26.4896 146.584 26.5185 146.902C25.8294 146.635 25.3313 146.138 25.0186 145.531C23.4839 144.811 22.3373 143.635 22.1983 141.951L22.1346 141.154L21.6192 141.221C21.347 141.857 21.0748 142.241 19.8239 141.974C19.7776 141.762 19.7371 141.522 19.7023 141.26C19.5402 141.238 19.3838 141.215 19.2274 141.182C19.3201 141.461 19.4128 141.734 19.4822 141.979C18.7641 141.773 18.2603 141.327 17.9418 140.764C17.6233 140.619 17.3279 140.452 17.05 140.256C17.2121 140.697 17.4322 141.226 17.0384 141.154C16.2218 140.663 15.7585 139.721 15.6137 138.69C14.8088 137.262 14.9941 135.662 16.1465 134.157C16.5751 133.599 16.9573 133.304 17.3569 132.992C18.0345 132.462 18.7352 131.916 19.4359 130.315C21.7003 125.158 21.9898 117.325 20.2988 107.044C19.0653 99.5783 16.7488 90.9588 14.0907 83.9895C12.4286 79.6296 10.5291 76 8.51376 72.298C4.50047 68.083 0.498772 59.6084 0.631969 54.3062C0.701463 51.4683 1.8597 48.3572 3.08743 45.8037C4.16459 43.568 5.71083 41.4716 6.81695 39.2415C4.79003 39.9105 2.05081 38.8624 1.31533 36.911C1.50065 35.9799 4.81899 35.138 5.75137 35.3443C4.78424 33.4877 6.09884 27.8956 8.4848 31.3802C9.05813 32.2221 9.41139 33.3762 9.55038 34.5136C9.89206 34.5916 10.2337 34.4968 10.5001 34.2292L10.6391 34.0898L10.6912 33.9003C10.9518 32.958 11.2819 32.0046 11.6236 30.9899C12.1159 29.5403 12.6197 28.0517 12.9324 26.5909C12.8166 26.4627 12.7182 26.3345 12.6545 26.2285C12.2143 25.5037 12.6892 25.0298 12.666 24.2716C12.8571 24.4333 13.0425 24.6061 13.2278 24.7845C13.2625 24.4333 13.2683 24.1043 13.2278 23.8813C13.1293 23.3628 12.695 22.5878 11.9943 21.3668C11.502 20.5082 10.9403 19.5381 10.7376 18.9527C9.33031 14.9607 9.61408 11.7492 11.5599 9.66963C13.749 7.32797 18.0287 6.58644 23.0033 7.67364L23.3971 7.75727L23.6982 7.5008C23.7388 7.46178 23.7851 7.42832 23.8256 7.39487C23.6577 7.31124 23.4897 7.22761 23.3218 7.14398C23.7967 6.44148 24.3237 6.369 24.8796 6.54741C33.659 -0.193233 44.4654 -0.30474 52.7815 6.3913C54.0266 7.39487 55.0864 8.59915 56.2099 9.87034C57.6982 11.5597 59.2329 13.2992 61.2482 14.5648C63.0666 15.7078 64.7808 16.1873 66.4371 16.6556C67.3405 16.9121 68.2671 17.1741 69.2227 17.5421C69.3037 17.5755 69.3848 17.609 69.4659 17.648C70.2014 17.4752 70.8558 17.4417 71.2438 17.6034C71.7244 17.7985 73.0332 19.6384 73.2707 20.1625C74.2378 22.2812 73.5023 24.2716 71.4986 24.1656C71.128 24.673 70.8036 25.1692 70.4967 25.6598C70.3809 25.8438 70.2651 26.0278 70.1434 26.2118C70.3346 26.5965 70.5894 26.9422 70.5604 27.2098C70.5372 27.4384 70.045 28.1242 69.8539 28.1632C69.6165 28.2134 69.379 27.9179 69.1821 27.5332C68.9505 27.8064 68.6957 28.0796 68.4119 28.336C68.2729 28.4587 68.0297 28.6092 67.7922 28.7542C67.4448 28.966 67.1147 29.1723 66.883 29.4177C66.8714 29.4344 66.8541 29.44 66.8425 29.4511C66.744 29.5292 66.4487 29.7745 66.4776 30.1871C66.4776 30.1871 66.4776 30.1926 66.4776 30.1982C67.3289 30.293 68.1687 30.4826 69.02 30.8338C69.0489 31.1516 68.4814 31.1795 68.2555 31.2185C68.0992 31.2464 67.937 31.2631 67.7749 31.291C68.4524 31.5698 69.3501 31.9154 69.4543 31.9489C71.9735 32.7685 74.7417 33.4096 77.4172 34.0285C79.7568 34.5693 82.1833 35.1324 84.4245 35.807C98.4218 40.0276 113.346 46.233 117.886 60.2272C119.855 66.2933 120.556 72.928 121.239 79.3453C121.853 85.1604 122.49 91.1706 124.059 96.8966C124.685 99.1825 125.721 100.866 126.729 102.494C127.511 103.76 128.316 105.065 128.924 106.659C130.024 109.542 131.889 115.295 132.41 118.507C132.457 118.808 132.503 119.12 132.514 119.432C132.439 119.382 132.346 119.315 132.236 119.237L132.196 119.243Z" fill="#635B11"/>
<path d="M26.2752 135.02C29.7267 127.738 29.3445 113.956 28.5106 106.005C27.7693 98.8912 25.7656 91.6599 24.6826 84.5736L26.2173 86.4748C28.47 89.6193 29.2924 93.3994 31.2846 96.6721L31.5046 94.7208C30.3174 88.3927 25.7308 83.609 22.1635 78.4908C20.1423 75.5972 18.6424 72.2408 18.3297 68.7283C22.3372 64.0394 27.5145 60.4489 31.4988 55.76C33.2246 53.7249 35.2573 51.3721 35.2168 48.5844C35.2052 47.9488 34.9388 47.3132 34.9156 46.739C34.7766 42.9143 35.8248 40.6283 37.8054 37.4281C38.622 36.1123 40.7242 32.7838 42.143 32.3768C44.6274 31.6575 48.7507 31.5349 51.4089 31.4568C56.5804 31.3007 62.7075 32.059 67.7458 31.3119C67.908 31.2896 68.0701 31.2673 68.2265 31.2394C68.4523 31.2004 69.0199 31.1669 68.9909 30.8547C68.1454 30.5034 67.2999 30.3139 66.4486 30.2191C64.4738 29.9961 62.47 30.286 60.3505 30.247C52.6482 30.1132 41.7608 29.0204 35.1415 33.4361C34.0296 34.1776 28.6612 39.0394 29.5993 40.2659L30.3001 40.4499C32.0664 38.1361 33.8501 35.9896 36.5082 34.5456C36.653 34.501 36.6646 34.7407 36.6124 34.8467C36.4677 35.1477 35.5527 36.1402 35.2457 36.6085C33.1493 39.8143 31.3714 44.6259 26.8427 44.8768C22.094 45.1444 15.3009 43.4049 11.5888 40.4778C11.1313 40.1154 9.27809 38.2923 9.16227 37.8741C9.06382 37.5117 9.51553 36.9988 9.56765 36.4914C9.62556 35.8948 9.61398 35.2146 9.52711 34.5233C9.38233 33.3859 9.03486 32.2318 8.46154 31.3899C6.07557 27.9053 4.76098 33.4974 5.7281 35.354C4.79572 35.1477 1.47159 35.9952 1.29206 36.9207C2.03333 38.8665 4.77256 39.9203 6.79368 39.2512C5.69336 41.4814 4.14711 43.5777 3.06416 45.8135C1.83064 48.367 0.678198 51.4781 0.608704 54.3159C0.475507 59.6181 4.47721 68.0927 8.49049 72.3077C8.7511 72.5809 9.00591 72.8318 9.26651 73.066C10.0715 73.7963 11.8088 75.3017 12.9729 74.6215C14.1774 73.5733 15.3415 71.4324 16.4534 70.4901C16.546 70.4121 16.9977 70.1891 17.0209 70.2169C17.2236 72.1014 18.0865 73.8688 18.9378 75.547C17.3105 75.4466 15.8974 74.1699 14.2527 74.6215C14.9998 76.5617 17.8085 76.7178 19.6443 77.175C23.1769 81.6186 23.8661 87.7125 24.839 93.1429C26.5126 102.443 28.0762 111.876 27.2423 121.382C26.9759 124.404 25.725 134.122 23.8429 136.151C23.1074 136.943 22.1171 137.4 21.6017 138.504L21.4975 136.865C19.4937 137.01 19.4416 139.541 19.6848 141.27C19.7196 141.526 19.7659 141.771 19.8064 141.983C21.0573 142.251 21.3295 141.866 21.6017 141.231C21.7465 140.896 21.8855 140.495 22.175 140.077C23.4549 138.209 25.227 137.261 26.2926 135.014L26.2752 135.02Z" fill="#635B11"/>
<path d="M65.2513 22.337C66.0447 23.4632 66.9829 23.3238 68.1296 23.4632C68.4249 23.4966 68.5002 23.3516 68.4423 23.7642C67.2319 25.6709 64.5911 26.5629 62.3731 26.7357C57.468 27.1204 52.6324 25.8827 47.7852 25.6096C49.3604 27.2263 51.9085 27.8006 54.1265 28.1183C57.5954 28.6145 62.4079 28.7037 65.6741 27.4549C66.2011 27.2542 68.4133 25.9608 68.6566 26.128C68.6971 26.3566 68.894 27.0312 69.1546 27.5441C69.3515 27.9288 69.5889 28.2243 69.8264 28.1741C70.0175 28.1351 70.5097 27.4493 70.5329 27.2208C70.5561 26.9532 70.3012 26.6131 70.1159 26.2228C70.0233 26.0277 69.9422 25.8214 69.9248 25.6096C69.8843 25.013 70.1738 24.4611 70.1507 23.8701C70.6371 24.0653 71.0715 24.16 71.4653 24.1823C73.469 24.2883 74.2045 22.298 73.2374 20.1794C72.9999 19.6554 71.6911 17.8212 71.2105 17.6205C70.8167 17.4588 70.168 17.4922 69.4326 17.6651C67.0698 18.2281 63.8093 20.2798 65.2513 22.3314V22.337Z" fill="#635B11"/>
<path d="M19.3481 30.6608C22.3827 30.7221 26.0427 25.3307 27.3747 22.989C30.3977 17.6645 32.5057 11.2082 26.1585 7.272C25.7126 6.9988 25.2725 6.70888 24.8497 6.5695C24.2938 6.38551 23.7668 6.46356 23.2919 7.16606C23.4656 7.24969 23.6336 7.33333 23.7957 7.41696C26.6103 8.83868 28.4287 10.528 28.197 13.9402C27.9828 17.0066 24.5138 24.8958 22.4464 27.2653C20.072 29.9917 18.8559 29.5847 16.163 27.5608C15.1032 26.7636 14.1824 25.721 13.2037 24.7954C13.0184 24.6226 12.833 24.4498 12.6419 24.2825C12.6593 25.0408 12.1902 25.5147 12.6304 26.2395C12.6941 26.3454 12.7925 26.4681 12.9083 26.6019C14.1245 27.9846 17.9698 30.6273 19.3481 30.6552V30.6608Z" fill="#635B11"/>
<path d="M92.9309 78.1237C91.2283 72.6486 85.6803 69.7717 80.005 69.8944C79.8428 69.8944 79.6807 69.8944 79.5185 69.9055L79.1016 71.0373C79.2811 71.0318 79.4548 71.0373 79.6343 71.0373C85.3502 71.0373 90.1395 74.8063 91.8248 80.0193C92.9309 83.4426 92.6645 87.1335 93.9791 90.4564C94.9346 92.8761 96.8284 96.082 98.5194 98.4683C98.7742 98.8307 99.029 99.1763 99.2722 99.4941C99.5097 99.8008 101.925 102.416 102.104 102.209C101.948 101.78 101.757 101.379 101.548 100.983C100.645 99.2655 99.3301 97.7769 98.3746 96.0653C94.7377 89.5644 94.9868 84.7193 92.9367 78.1292L92.9309 78.1237Z" fill="#635B11"/>
<path d="M48.5387 56.0603C48.1796 54.7055 47.6874 52.8099 46.1875 52.375C45.8284 53.9751 47.0446 55.447 47.3457 57.0026C47.8611 59.6899 47.4557 63.8324 47.1198 66.5922C46.6681 70.3668 45.5562 74.0242 45.0987 77.7988C45.0756 78.0051 45.0408 78.2114 45.0234 78.4176C45.5331 78.3898 46.257 78.6128 46.4712 78.072C46.4944 77.9159 46.5234 77.7598 46.5465 77.6092C47.6584 70.679 50.3745 63.024 48.5387 56.0659V56.0603Z" fill="#635B11"/>
<path d="M114.609 66.2797C114.308 65.2371 113.972 64.3786 113.387 63.4531C111.881 63.6092 113.138 66.0678 113.329 67.0992C114.036 70.907 113.949 73.8228 113.972 77.1957C113.978 78.0766 113.989 78.9909 114.03 79.961C114.041 80.2063 113.868 80.7247 114.238 80.6746C114.499 79.4759 114.841 78.2773 115.032 77.0563C115.043 76.9894 115.055 76.9225 115.067 76.8556C115.57 73.3378 115.611 69.7307 114.603 66.2797H114.609Z" fill="#635B11"/>
<path d="M40.2065 11.9713C40.9015 11.8542 41.5443 11.3358 42.4072 11.2187C44.5673 10.9176 45.7892 11.5866 47.7814 11.7818L47.5729 10.65C45.5228 9.85279 42.5577 9.45696 40.5366 10.4437C39.6216 10.8953 38.7066 12.2278 40.2065 11.9713Z" fill="#635B11"/>
<path d="M78.71 137.228C79.1038 134.886 81.5187 134.262 82.2947 132.355C80.3662 132.266 78.3509 133.86 77.876 135.633C77.6096 136.62 77.8181 137.663 78.7852 138.504C78.959 138.215 78.7852 137.93 78.7273 137.596C78.7042 137.479 78.6926 137.356 78.7157 137.228H78.71Z" fill="#635B11"/>
<path d="M18.1791 134.195C16.2043 134.413 15.3066 136.726 15.5846 138.7C15.7294 139.731 16.1985 140.674 17.0092 141.164C17.403 141.237 17.183 140.707 17.0208 140.267C16.9571 140.099 16.905 139.943 16.8992 139.837C16.7486 137.579 17.82 136.353 18.1791 134.201V134.195Z" fill="#635B11"/>
<path d="M26.3328 142.565C26.4834 141.935 27.2073 141.244 26.9061 140.352C24.7634 140.92 24.0511 143.724 24.9835 145.542C25.2962 146.15 25.7942 146.646 26.4834 146.913C26.4544 146.601 26.4139 146.317 26.3734 146.038C26.1996 144.862 25.9969 143.942 26.3328 142.565Z" fill="#635B11"/>
<path d="M29.1792 141.604C28.2063 141.682 27.7314 143.556 27.7719 144.319C27.7893 144.715 28.1599 145.674 28.6348 146.382C29.0286 146.973 29.4977 147.38 29.8857 147.118C30.1521 146.94 30.1521 146.655 30.0479 146.349C29.851 145.774 29.2776 145.089 29.2545 144.754C29.2081 144.152 30.4532 141.504 29.1792 141.604Z" fill="#635B11"/>
<path d="M19.6675 135.633C17.7449 136.213 16.9515 139.05 17.9128 140.773C18.2313 141.336 18.7352 141.782 19.4533 141.988C19.378 141.743 19.2853 141.47 19.1985 141.191C19.0073 140.6 18.8162 139.97 18.822 139.429C18.8394 138.175 19.9918 136.988 19.6675 135.638V135.633Z" fill="#635B11"/>
<path d="M99.9386 137.742C100.083 137.24 99.6722 136.616 99.9676 136.047C97.848 136.236 97.4079 138.349 97.3789 140.061L97.6279 140.663L98.265 142.196C98.265 141.984 98.2939 141.739 98.3229 141.477C98.4213 140.641 98.6356 139.637 98.8904 139.002C99.1163 138.433 99.8344 138.121 99.9386 137.742Z" fill="#635B11"/>
<path d="M101.134 140.542C101.383 139.41 102.634 138.73 102.744 137.481C101.238 137.046 99.9928 139.104 99.8132 140.297C99.6858 141.144 99.9059 141.869 100.34 142.51C100.56 142.833 100.832 143.14 101.145 143.419C101.145 143.151 101.128 142.895 101.11 142.638C101.053 141.952 100.966 141.3 101.134 140.536V140.542Z" fill="#635B11"/>
<path d="M32.6601 141.787C30.9575 142.116 31.0154 144.764 32.0173 145.951C32.3705 146.37 32.8454 146.609 33.4014 146.498C33.8589 146.409 33.5635 145.896 33.2624 145.427C33.0886 145.154 32.9149 144.898 32.8859 144.747C32.7122 143.827 33.1002 142.723 32.6601 141.781V141.787Z" fill="#635B11"/>
<path d="M82.7124 134.61C80.4481 134.555 79.3941 136.757 80.2396 138.468C80.4307 138.859 80.7203 139.227 81.1198 139.533C81.5252 139.589 81.2936 139.126 81.1372 138.691C81.0793 138.524 81.0272 138.357 81.0272 138.229C81.0677 136.378 82.5676 136.138 82.7124 134.616V134.61Z" fill="#635B11"/>
<path d="M104.876 138.712C103.353 138.377 102.461 140.763 102.791 141.845C102.82 141.94 103.034 142.257 103.289 142.558C103.637 142.971 104.065 143.35 104.239 143.116C104.042 142.887 103.926 142.664 103.862 142.447C103.503 141.192 105.067 140.083 104.876 138.706V138.712Z" fill="#635B11"/>
<path d="M62.1613 18.7389C63.14 19.001 63.14 17.4511 62.1613 17.7187C61.7327 17.8358 61.7327 18.6219 62.1613 18.7389Z" fill="#635B11"/>
<path d="M60.7835 18.125H59.7179C59.5557 19.5912 60.7835 19.3348 60.7835 18.125Z" fill="#635B11"/>
<path d="M65.0337 16.8987C64.6978 16.5753 63.7133 17.0715 64.2056 17.6959C64.7094 18.337 65.3812 17.2276 65.0337 16.8987Z" fill="#635B11"/>
<path d="M62.0552 20.7986V20.1853C60.7117 19.8787 60.9665 21.2669 62.0552 20.7986Z" fill="#635B11"/>
<path d="M66.7382 18.4316L66.217 18.125L65.8984 18.4316L66.4196 18.7383L66.7382 18.4316Z" fill="#635B11"/>
<path d="M62.2659 16.2812H61.6289V16.6882H62.2659V16.2812Z" fill="#635B11"/>
<path d="M64.18 19.3594H63.543V19.7664H64.18V19.3594Z" fill="#635B11"/>
</svg>
