<svg width="44" height="44" viewBox="0 0 44 44" fill="none" xmlns="http://www.w3.org/2000/svg">
<path d="M2.44991 24.2423C3.05249 15.7772 8.90896 4.12814 19.8514 2.73836C30.7939 1.34858 39.9187 8.8278 41.2506 19.3143C40.2418 31.1865 35.5646 38.9109 24.6222 40.3007C13.6797 41.6905 3.78178 34.7289 2.44991 24.2423Z" fill="#FFF8F5"/>
<path d="M17.9769 40.7197C16.8029 40.3972 15.6508 40.0097 14.5205 39.5572C13.3904 39.1046 12.2892 38.5898 11.217 38.0129C9.83653 37.2578 6.3591 35.0843 5.89692 33.5014C6.50642 33.335 7.13697 33.1643 7.76274 33.0766C10.0368 32.7569 12.6733 33.2792 14.519 34.6788C16.4424 36.1376 17.6429 38.3491 17.9769 40.7197Z" fill="#635B11"/>
<path d="M31.8687 38.5998C32.3418 38.5595 32.7128 38.2656 33.0295 37.9344C33.5722 37.651 34.1091 37.3399 34.691 37.1456C34.1893 37.0212 33.6016 36.9147 33.1471 36.6644C31.8703 35.9611 30.7272 34.8104 29.6087 33.8803C27.6149 32.2228 24.1902 29.566 21.9064 28.497C21.634 28.355 21.6382 28.3291 21.5061 28.0474C21.0231 28.6428 20.5609 29.2466 19.9723 29.743C18.2859 28.8038 16.5742 27.6636 14.8153 26.8856C14.9437 26.3327 14.2507 26.9573 14.3524 26.7507L14.2416 26.7261C10.4562 25.8873 6.76681 25.0697 2.87163 25.8007C2.94424 25.9457 2.98711 26.0501 2.97978 26.2156C2.96846 26.4682 2.9399 26.5614 3.03218 26.808L3.10926 26.6841C3.24255 26.6413 3.28415 26.6232 3.44042 26.6014C4.23952 26.4899 5.12516 26.5166 5.93486 26.4905C11.0022 26.3276 15.0493 27.7188 19.2101 30.5427L18.3415 31.5784L19.9396 31.0559C23.0888 32.5017 26.4451 34.9722 29.3548 36.9316C30.1852 37.4909 31.1105 37.9468 31.8687 38.5998Z" fill="#FFF8F5"/>
<path d="M33.0294 37.9335C30.4866 37.1206 27.7294 34.8845 25.463 33.4031C23.7632 32.3101 22.0485 31.2409 20.319 30.1956L21.9063 28.4961C24.1901 29.5652 27.6148 32.222 29.6086 33.8795C30.7271 34.8096 31.8702 35.9603 33.147 36.6636C33.6015 36.9139 34.1892 37.0204 34.6909 37.1448C34.1091 37.3391 33.5721 37.6501 33.0294 37.9335Z" fill="#635B11"/>
<path d="M24.0258 40.6206C22.2925 40.8347 20.6035 41.0858 18.8634 40.776C18.3466 37.9493 17.0682 35.464 14.6593 33.7739C12.7208 32.4139 9.72861 31.5878 7.37913 32.0026C6.65757 32.1301 6.0321 32.3724 5.39559 32.7291C4.22196 30.8418 3.55827 28.9541 3.03072 26.8071L3.1078 26.6832C3.24108 26.6404 3.28269 26.6223 3.43895 26.6005C4.23805 26.489 5.1237 26.5157 5.9334 26.4896C11.0007 26.3267 15.0478 27.7179 19.2087 30.5418L18.3401 31.5775L19.9381 31.055C23.0873 32.5008 26.4437 34.9713 29.3533 36.9307C30.1837 37.49 31.109 37.9459 31.8673 38.5989C29.5945 39.3965 27.4513 40.0152 25.0656 40.3721C24.7191 39.3879 24.2292 38.699 23.2817 38.2108C22.9519 38.041 22.6942 37.9601 22.3358 38.0633C22.3551 38.3508 22.414 38.4913 22.6394 38.6855C22.9024 38.9117 23.2613 39.0951 23.5583 39.2762C23.742 39.7234 23.9048 40.1523 24.0258 40.6206Z" fill="#635B11"/>
<path d="M19.9726 29.7479C18.2862 28.8086 16.5746 27.6683 14.8156 26.8902C19.8829 19.3995 25.5699 13.1551 33.4074 8.48903C34.4004 8.10703 35.2255 7.95934 36.2899 7.98947C36.5734 8.22475 36.8453 8.47259 37.1058 8.73302C37.3665 8.99342 37.6146 9.26521 37.8501 9.54839C38.0857 9.83154 38.3078 10.1249 38.5165 10.4286C38.7251 10.732 38.9193 11.0445 39.0991 11.3661C35.6899 12.8755 29.8426 18.4898 27.3537 21.4073C26.1393 22.8307 23.7096 25.9618 22.426 27.0857C22.1354 27.3398 21.7399 27.4114 21.3712 27.4773C21.3315 27.4846 21.2919 27.4906 21.2523 27.4974C21.2176 27.6684 21.4163 27.8993 21.5064 28.0521C21.0234 28.6476 20.5613 29.2514 19.9726 29.7479Z" fill="#635B11"/>
<path d="M35.3991 36.4109C35.2133 36.8557 35.0859 36.9216 34.6914 37.1475C34.1897 37.0231 33.602 36.9166 33.1475 36.6663C31.8707 35.963 30.7276 34.8122 29.6091 33.882C27.6152 32.2244 24.1905 29.5675 21.9067 28.4983C21.6343 28.3563 21.6385 28.3304 21.5064 28.0487C21.4163 27.8958 21.2176 27.6649 21.2523 27.4939C21.2919 27.4872 21.3315 27.4811 21.3712 27.4738C21.7399 27.4079 22.1354 27.3364 22.426 27.0822C23.7096 25.9584 26.1393 22.8273 27.3537 21.4039C29.8426 18.4863 35.6899 12.8721 39.0991 11.3626C39.2051 11.6397 39.32 11.8082 39.5136 12.0322C41.5011 15.3426 41.8038 21.0997 41.0531 24.8075C41.0461 25.0607 40.9344 25.2144 40.8214 25.4405C40.5362 28.1582 39.5549 30.5858 38.23 32.9567C38.1367 33.3463 37.9156 33.5882 37.6706 33.891C36.9851 34.7527 35.9881 35.5062 35.3991 36.4109Z" fill="#635B11"/>
<path d="M38.231 32.9605C38.1377 33.3502 37.9166 33.592 37.6716 33.8948C36.8497 33.0233 36.4759 31.8675 35.9499 30.8152C35.4825 29.8805 34.9418 28.955 34.3451 28.0964C32.9137 26.0378 31.4297 25.173 29.9509 23.4806C30.7166 23.3648 31.4338 23.8585 32.0207 24.2922C34.9295 26.4408 36.2114 30.0909 38.231 32.9605Z" fill="#FFF8F5"/>
<path d="M35.4 36.4108C35.2142 36.8556 35.0869 36.9214 34.6924 37.1474C34.1907 37.023 33.6029 36.9165 33.1485 36.6661C31.8716 35.9628 30.7286 34.812 29.61 33.8819C27.6162 32.2243 24.1915 29.5673 21.9076 28.4982C21.6352 28.3562 21.6395 28.3303 21.5074 28.0485C21.4172 27.8957 21.2186 27.6648 21.2533 27.4938C21.2928 27.487 21.3324 27.481 21.3721 27.4737C21.7408 27.4078 22.1363 27.3362 22.4269 27.0821C23.7105 25.9582 26.1402 22.8271 27.3547 21.4038C29.8436 18.4862 35.6908 12.872 39.1001 11.3625C39.206 11.6395 39.321 11.8081 39.5145 12.0321C37.3004 13.1374 35.4737 14.8089 33.7108 16.5114C34.0134 16.6563 34.3018 16.8159 34.5877 16.9913C37.2478 18.6252 40.3018 21.7031 41.054 24.8073C41.0471 25.0606 40.9354 25.2143 40.8224 25.4403C39.0467 21.795 36.7374 19.1451 33.235 17.0911C29.1605 19.8037 26.2409 24.5283 22.4723 27.7986C24.8209 29.4114 27.2049 30.9946 29.4697 32.7241C30.9843 33.8807 32.4767 35.4321 34.1244 36.3611C34.6219 36.6416 34.8798 36.5411 35.4 36.4108Z" fill="#FFF8F5"/>
<path d="M41.0524 24.8025C40.3002 21.6984 37.2463 18.6207 34.5862 16.9869C34.3003 16.8115 34.0118 16.6519 33.7092 16.507C35.4722 14.8046 37.2989 13.1332 39.513 12.0279C41.5005 15.3381 41.8032 21.0948 41.0524 24.8025Z" fill="#635B11"/>
<path d="M14.3509 26.7447C10.5266 25.8974 6.80329 25.0565 2.87011 25.7946C2.56711 24.1259 2.13942 21.4596 2.80501 19.8505C3.01595 19.7891 2.92882 19.7746 3.06896 19.8273L3.25644 19.5436C2.93838 18.9769 3.02464 18.552 3.19463 17.9311C4.46123 13.3058 10.3269 6.36496 14.629 4.02236C18.7427 1.78246 23.669 2.05411 28.0677 3.1459C28.6025 3.21143 29.3302 3.57232 29.7376 3.92573C31.7369 4.51872 33.5007 5.62706 35.1608 6.86521C34.5672 7.08561 33.9917 7.3067 33.4263 7.59526C26.8835 9.98864 17.3348 20.6816 14.3509 26.7447Z" fill="#635B11"/>
<path d="M10.5841 24.955C8.64634 24.2489 5.51158 22.6008 4.05573 21.1617C3.667 20.7774 3.36917 20.2929 3.06985 19.8383L3.25733 19.5546C5.62617 21.4253 8.35635 22.9354 10.5841 24.955Z" fill="#FFF8F5"/>
<path d="M29.7397 3.92823C21.2381 5.45277 13.2579 10.3189 8.34868 17.4606C7.75688 18.3214 7.25743 19.1984 6.91692 20.1871C6.79342 20.5459 6.65832 21.1215 6.36927 21.3639C6.16784 21.2731 6.17884 21.3241 6.09617 21.1334C5.80545 20.4639 6.32227 19.3999 6.61943 18.7769C8.35434 15.139 12.9743 10.5335 16.2522 8.33115C18.0557 7.1195 19.9993 6.18883 22.0122 5.38581C23.5279 4.78141 26.9696 3.83531 28.0699 3.14845C28.6047 3.21398 29.3324 3.57484 29.7397 3.92823Z" fill="#FFF8F5"/>
</svg>
